<?xml version="1.0" standalone="no"?>
<!DOCTYPE svg PUBLIC "-//W3C//DTD SVG 1.1//EN" "http://www.w3.org/Graphics/SVG/1.1/DTD/svg11.dtd"><svg t="1708610906410"
  class="icon" viewBox="0 0 1024 1024" version="1.1" xmlns="http://www.w3.org/2000/svg" p-id="986"
  xmlns:xlink="http://www.w3.org/1999/xlink" width="200" height="200">
  <path
    d="M512 1005.714286C239.762286 1005.714286 18.285714 784.237714 18.285714 512S239.762286 18.285714 512 18.285714a35.474286 35.474286 0 0 1 0 70.985143c-233.106286 0-422.729143 189.659429-422.729143 422.765714 0 233.069714 189.622857 422.692571 422.729143 422.692572 233.069714 0 422.729143-189.622857 422.729143-422.729143 0-117.174857-46.848-226.121143-131.913143-306.761143a35.547429 35.547429 0 0 1 48.859429-51.529143A489.289143 489.289143 0 0 1 1005.714286 512c0 272.237714-221.476571 493.714286-493.714286 493.714286z"
    fill="currentColor" p-id="987"></path>
</svg>
